<svg width="355" height="389" viewBox="0 0 355 389" fill="none" xmlns="http://www.w3.org/2000/svg">
<g clip-path="url(#clip0_57_73)">
<path d="M117.172 176.834C115.311 178.018 113.144 176.587 112.037 178.934C111.584 179.895 110.538 178.65 109.779 178.435C105.366 177.141 101.104 175.374 97.0691 173.165C95.3604 172.251 94.8284 170.038 94.7205 168.02C94.695 167.545 94.8375 166.914 95.5023 166.832C96.3715 166.726 96.0001 167.547 96.2332 167.917C96.5559 168.429 96.8206 168.987 97.6438 169.143C98.047 167.38 98.7395 165.722 97.8748 163.817C97.2633 162.473 98.9423 162.072 99.5438 161.706C100.98 160.835 100.922 159.597 101.302 158.309C101.666 157.073 102.535 156.149 101.153 154.901C100.635 154.434 100.477 153.157 101.216 152.297C102.364 152.683 101.932 153.733 102.096 154.533C104.346 153.879 103.366 152.443 103.137 151.206C103.018 150.565 102.508 149.853 103.313 149.321C104.206 148.732 104.261 150.178 105.159 150.038C104.74 148.126 105.408 147.03 107.222 148.418C108.461 149.366 109.328 147.544 110.382 148.662C109.524 149.05 109.136 149.937 108.586 150.736C109.685 151.595 109.89 149.993 110.681 149.964C111.374 151.099 109.849 152.29 111.26 153.321C110.092 153.481 107.9 151.648 109.347 154.549C109.819 155.496 108.309 156.954 110.137 157.74C110.606 157.942 109.849 158.465 109.619 158.594C109.242 158.788 108.909 159.055 108.637 159.38C108.366 159.705 108.162 160.081 108.039 160.486C107.915 160.891 107.874 161.317 107.917 161.738C107.961 162.16 108.088 162.568 108.292 162.94C109.158 164.544 109.406 167.351 112.529 166.828C113.295 166.7 114.2 167.194 114.999 167.51C116.193 167.981 117.115 168.907 118.605 167.566C119.331 166.912 121.318 167.145 121.723 169.058C122.122 170.943 123.278 171.642 124.952 170.642C125.996 170.018 125.686 170.789 126.138 171.145C127.889 172.526 127.295 175.753 130.332 176.102C131.827 176.274 132.644 176.557 131.715 174.549C133.644 176.539 135.532 178.571 137.515 180.504C138.778 181.739 138.593 183.05 137.953 184.401C137.641 185.06 137.062 185.388 137.821 186.323C138.565 187.241 137.964 188.643 137.182 189.387C135.786 190.717 135.333 192.462 134.529 194.071C133.573 195.983 134.375 197.299 136.086 197.648C140.315 198.509 144.03 200.925 148.303 201.546C150.078 201.805 151.038 204.336 153.242 203.24C153.511 203.85 153.67 204.549 154.073 205.053C154.99 206.196 156.004 207.264 157.021 208.323C157.945 209.287 158.42 210.193 156.661 211.27C158.985 210.433 159.549 211.479 159.814 213.254C159.91 213.896 160.574 214.66 159.813 215C159.44 215.167 158.155 214.987 158.115 213.903C158.083 213.056 157.902 212.351 156.959 212.884C155.911 213.477 156.995 214.197 157.261 214.562C159.438 217.545 159.545 220.476 157.568 223.612C156.741 224.923 157.259 226.396 158.325 227.291C161.843 230.249 165.69 233.309 170.066 234.068C172.938 234.566 175.203 236.063 177.89 236.664C180.233 237.189 182.172 238.816 184.752 239.108C186.999 239.362 189.405 244.507 188.348 246.731C186.448 250.728 186.082 255.457 182.688 258.747C181.754 259.652 182.365 260.274 183.186 260.796C184.649 261.725 186.125 262.636 187.578 263.58C188.33 264.069 189.284 264.264 189.318 265.564C189.354 266.877 190.692 266.624 191.544 266.805C192 266.902 192.802 266.144 192.953 266.564C193.831 269.003 196.192 267.59 197.635 268.503C198.588 269.105 198.562 269.062 199.253 270.617C199.454 271.07 200.171 271.369 200.713 271.585C204.824 273.154 208.541 275.609 211.6 278.775C212.952 280.194 213.009 281.364 212.162 282.632C210.451 285.194 210.149 288.214 209.111 290.987C208.748 291.955 208.792 292.537 210.061 292.728C214.161 293.327 218.111 294.701 221.699 296.777C222.458 297.217 223.677 296.261 224.362 297.049C225.908 298.827 227.331 300.718 228.721 302.623C229.081 303.117 228.801 303.615 228.078 303.645C227.307 303.677 227.006 304.045 227.163 304.832C227.745 307.739 225.978 309.38 222.898 308.739C218.425 307.809 213.968 306.802 209.496 305.865C205.035 304.93 200.57 304.005 196.093 303.152C194.54 302.857 193.004 302.5 191.671 301.69C190.169 300.778 188.878 299.073 189.899 297.604C191.738 294.956 192.239 291.515 194.837 289.384C196.461 288.053 195.497 287.611 194.221 287.004C186.298 283.232 178.544 279.178 172.088 273.066C171.962 272.947 171.82 272.844 171.696 272.723C164.27 265.358 165.744 263.232 171.172 256.034C173.82 252.522 174.771 253.191 169.819 250.982C164.751 248.721 159.404 247.092 154.56 244.325C150.642 242.087 146.675 239.893 145.075 235.186C143.899 231.725 144.788 228.422 145.913 225.262C147.775 220.031 145.229 217.111 140.7 215.021C135.782 212.75 130.662 210.924 125.673 208.799C119.869 206.329 119.021 203.509 122.183 197.503C122.868 196.202 123.781 195.008 124.353 193.666C125.699 190.499 124.754 187.968 121.93 186.054C119.263 184.246 116.797 182.147 113.887 180.697C113.446 180.478 112.453 180.511 112.909 179.558C113.215 178.917 113.924 178.985 114.53 179.011C116.181 179.089 116.181 179.098 117.172 176.834ZM109.916 170.172C108.32 169.986 107.427 169.973 107.283 171.93C107.207 172.964 107.892 174.559 106.295 175.339C106.023 175.471 106.495 175.918 106.794 176.055C107.02 176.16 107.256 176.699 107.563 176.099C108.567 174.142 110.097 174.457 111.836 175.27C110.994 174.302 111.89 172.586 109.947 172.216C109.425 172.116 108.584 173.255 108.396 172.047C108.262 171.168 108.91 170.604 109.916 170.172ZM172.165 266.504C172 266.671 171.836 266.837 171.672 267.004C173.313 270.303 176.094 272.452 179.495 273.976L172.165 266.504ZM122.043 182.445C123.617 184.172 125.251 185.152 126.175 186.796C126.454 187.292 126.94 187.982 127.564 187.521C128.065 187.15 127.738 186.454 127.486 185.879C126.542 183.727 124.847 182.716 122.042 182.446L122.043 182.445ZM121.327 181.113C119.965 179.929 119.795 177.048 117.037 179.347C118.283 180.199 119.199 181.523 121.326 181.113L121.327 181.113ZM116.941 173.388C118.855 174.217 120.359 174.864 121.86 175.519C122.103 175.625 122.004 176.623 122.564 175.818C122.66 175.517 122.639 175.191 122.504 174.905C120.722 174.648 119.582 172.376 116.94 173.389L116.941 173.388ZM187.353 264.45L181.412 260.566C182.894 262.587 184.907 263.797 187.353 264.45Z" fill="black"/>
<path d="M167.251 159.365C170.949 163.265 172.049 167.729 170.206 172.847C169.749 174.118 169.507 175.561 170.512 176.554C173.122 179.131 174.59 182.592 177.61 184.907C182.25 188.465 187.399 191.365 191.553 195.555C193.126 197.14 194.665 198.759 196.248 200.392C197.33 200.065 195.997 199.236 196.516 198.735C196.726 198.922 197.031 199.058 197.091 199.264C198.1 202.778 200.289 206.249 198.465 209.975C197.779 211.377 198.174 212.814 197.56 214.185C197.343 214.668 198.637 216.066 199.483 216.751C204.236 220.6 209.117 224.291 213.835 228.181C215.475 229.533 216.809 231.269 218.215 232.89C218.812 233.58 219.199 234.215 218.651 235.399C218.235 236.302 217.304 238.142 219.487 238.761C218.844 240.343 221.018 241.737 219.494 243.596C217.768 245.704 219.062 247.292 220.978 249.076C223.627 251.541 227.366 251.39 229.905 253.737C230.427 254.219 231.148 254.277 231.875 254.206C232.385 254.156 233.215 254.044 233.379 254.297C234.927 256.699 237.46 255.098 239.369 255.875C242.408 257.112 245.518 258.247 247.825 260.768C248.544 261.553 248.557 261.506 249.995 261.366C250.244 261.342 250.577 261.672 250.794 261.909C252.286 263.535 252.253 264.582 251.176 267.728C250.97 268.33 251.711 269.249 251.993 270.03C252.971 272.734 250.609 274.746 250.494 277.232C250.473 277.69 249.95 278.585 250.555 278.505C253.09 278.167 254.513 281.066 257.074 280.555C257.886 280.394 258.794 280.623 259.644 280.762C260.576 280.915 261.716 281.102 262.025 282.028C262.287 282.816 261.349 283.391 260.673 283.731C259.312 284.413 260.619 286.287 258.832 287.054C256.913 287.871 254.813 288.166 252.742 287.911C247.903 287.357 243.271 288.435 238.589 289.138C237.245 289.34 236.261 289.403 235.492 288.088C234.771 286.855 234.94 286 235.56 284.608C236.78 281.872 238.677 279.784 240.592 277.652C241.659 276.464 241.653 275.246 240.774 274.113C238.672 271.405 236.34 269.01 232.648 268.537C225.862 267.668 220.217 264.102 214.412 260.846C213.044 260.078 211.403 259.59 209.884 258.98C208.198 258.3 206.807 257.045 205.956 255.438C205.021 253.738 205.469 252.257 206.639 250.668C209.839 246.327 209.463 244.109 205.39 240.501C201.026 236.633 196.511 232.906 192.443 228.745C190.563 226.823 188.172 225.385 186.808 222.872C185.653 220.744 184.926 218.675 186.169 216.513C187.515 214.174 186.715 212.384 185.217 210.617C181.189 205.846 176.621 201.558 171.606 197.841C167.769 195.003 164.058 192.004 160.782 188.549C158.321 185.952 156.749 182.783 157.899 179.041C158.859 175.914 157.807 173.5 155.827 171.168C150.851 165.308 144.878 160.551 138.933 155.77C131.994 150.194 124.559 145.246 117.927 139.273C116.354 137.857 114.623 136.54 114.421 134.084C116.303 133.979 117.073 135.293 117.969 136.254C119.904 138.337 122.084 140.179 124.46 141.738C124.763 141.936 125.287 142.368 125.575 141.844C125.893 141.264 125.32 141.206 124.915 140.879C122.173 138.66 118.798 137.078 117.219 133.622C116.828 132.766 115.705 131.806 117.711 131.426C118.432 131.289 117.919 130.554 117.991 130.102C118.061 129.662 118.223 128.945 118.534 129.094C119.747 129.674 121.311 128.815 122.16 129.535C125.496 132.372 129.13 134.84 132.998 136.894C137.245 139.135 140.717 142.914 145.737 143.672C147.031 146.577 151.06 145.444 152.541 148.528C153.503 150.528 156.413 150.818 158.394 151.711C162.252 153.449 164.71 156.413 167.285 159.4C164.85 158.562 163.672 156.043 161.362 155.02C163.846 157.229 165.809 159.899 168.117 162.334C168.527 161.044 166.379 160.687 167.251 159.365ZM197.606 228.412C200.443 233.682 206.258 236.127 209.532 240.989C209.88 241.507 210.633 241.87 211.114 241.411C211.717 240.835 211.248 240.113 210.776 239.596C208.783 237.413 206.498 235.468 204.589 233.269C202.586 230.959 200.024 229.912 197.579 228.492C196.121 225.443 193.425 223.579 190.979 221.318C190.264 224.099 193.363 227.296 197.606 228.412ZM175.745 197.273C180.529 200.961 184.876 205.185 188.7 209.862C188.955 206.321 180.176 197.876 175.745 197.273ZM162.765 184.025C162.139 186.2 165.503 189.768 168.573 190.156C166.071 188.705 164.789 186.104 162.764 184.024L162.765 184.025ZM243.965 272.305C242.983 269.623 241.821 268.119 238.876 267.981C240.659 269.54 241.631 271.206 243.965 272.305ZM175.006 194.975C173.216 194.195 171.928 192.331 169.777 192.203C171.44 193.264 172.157 196.033 175.005 194.975L175.006 194.975ZM194.131 201.369C193.269 198.675 190.449 195.841 187.824 194.66L194.131 201.369ZM211.176 228.164C212.577 230.131 214.132 232.022 216.373 233.224C215.184 231.056 213.374 229.294 211.176 228.164ZM159.756 170.521L160.361 170.065C159.325 167.902 157.555 166.176 155.367 165.196L159.756 170.521Z" fill="black"/>
<path d="M222.379 163.773C222.329 162.623 220.952 161.87 221.728 160.496C223.016 161.206 223.977 162.391 224.406 163.798C224.599 164.546 224.972 165.236 225.493 165.807C226.898 167.154 227.548 168.386 225.223 169.606C224.162 170.163 224.182 175.091 225.075 176.23C226.187 177.646 227.128 179.639 228.346 180.433C231.618 182.569 234.261 185.895 238.43 186.526C239.235 186.648 239.474 187.31 239.972 187.747C241.812 189.361 242.817 192.07 245.979 192.007C247.215 191.983 245.332 193.249 246.389 194.042C247.576 194.933 248.356 196.419 249.188 197.727C251.225 200.928 251.325 203.26 248.469 205.494C246.611 206.95 247.795 207.383 248.632 208.323C247.408 208.431 245.92 207.968 246.806 210.023C247.387 211.366 245.937 212.186 245.466 213.235C245.136 213.971 244.933 212.902 244.638 212.636C244.127 212.176 243.54 211.634 242.709 211.912C242.993 212.669 241.415 213.194 242.536 214.157C243.24 214.762 243.216 215.828 243.024 216.941C244.478 215.317 246.429 216.216 248.077 215.565C249.303 215.082 250.725 214.952 251.753 213.999C252.453 213.349 253.16 213.773 252.836 214.263C251.877 215.716 252.597 217.748 251.009 218.943C250.386 219.412 250.089 219.087 249.687 218.804C249.275 218.515 249.031 217.164 248.593 217.929C247.742 219.415 246.274 219.713 245.09 220.54C247.345 221.33 244.669 222.216 245.069 223.157C245.163 223.378 243.764 224.397 243.255 223.406C241.944 220.836 240.051 222.122 238.813 222.937C236.883 224.208 235.391 223.681 233.715 222.719C233.717 221.643 235.911 222.029 235.22 220.476C234.66 219.214 233.528 219.977 232.686 219.724C232.228 219.586 231.611 219.373 231.3 219.992C230.993 220.602 231.577 220.967 231.89 221.301C233.557 223.084 231.467 223.943 230.801 223.768C228.667 223.206 226.361 223.678 224.35 222.62C222.218 221.498 222.085 220.031 223.95 218.58C224.153 218.417 224.303 218.198 224.381 217.95C225.856 212.88 230.374 211.412 234.475 209.561C237.979 207.98 238.058 207.785 235.48 204.832C232.478 201.392 228.696 198.919 225.113 196.205C220.987 193.08 216.716 190.128 213.207 186.284C210.422 183.235 209.317 179.722 211.155 175.758C212.116 173.686 211.595 172.251 209.91 170.78C204.3 165.88 197.949 162.058 191.709 158.083C188.688 156.096 185.84 153.857 183.194 151.392C180.097 148.59 179.087 144.526 180.584 140.475C181.978 136.7 181.18 133.654 178.945 130.545C172.682 121.838 164.986 114.473 157.244 107.159C149.256 99.6126 140.928 92.4466 132.462 85.4415C131.985 85.0657 131.568 84.6184 131.228 84.1153C130.715 83.3072 130.118 82.2341 130.87 81.4972C131.469 80.9108 132.215 81.928 132.907 82.2036C133.567 82.4671 134.182 83.663 134.868 82.8393C135.596 81.9654 134.355 81.4172 133.953 80.7225C133.407 79.7769 130.992 78.1973 134.616 78.3988C134.731 78.3772 134.838 78.3296 134.931 78.2597C135.024 78.1898 135.1 78.0995 135.152 77.9957C136.797 74.5057 139.727 74.3313 142.792 76.9976C144.957 78.8538 147.273 80.5254 149.717 81.9949C154.42 84.8518 158.606 88.3833 163.004 91.6152C170.728 97.2255 178.05 103.37 184.917 110.002C188.932 113.836 192.241 118.346 194.693 123.327C195.081 124.134 195.457 124.879 196.403 125.225C196.668 124.342 196.648 123.397 196.345 122.525C196.775 123.964 197.563 125.35 196.792 126.953C196.47 127.625 196.819 128.177 197.04 128.844C197.337 129.744 198.007 131.29 195.939 131.366C195.78 131.393 195.626 131.442 195.48 131.511C196.965 133.165 194.27 133.727 194.557 135.001C194.892 136.562 194.774 138.187 194.218 139.683C193.825 140.838 194.407 141.884 195.05 142.76C195.615 143.531 197.443 143.912 195.495 145.138C195.564 145.448 195.707 145.737 195.911 145.98C195.991 146.056 196.088 146.112 196.194 146.143C196.3 146.174 196.411 146.179 196.519 146.159C196.628 146.138 196.729 146.093 196.817 146.025C196.904 145.958 196.974 145.871 197.02 145.771C197.667 144.756 198.629 144.478 199.377 145.277C200.563 146.546 202.64 146.61 203.384 148.314C203.771 149.2 202.396 149.348 202.267 150.305C203.741 150.214 205.021 152.176 206.572 150.436C206.627 150.373 207.01 150.449 207.047 150.539C207.686 152.102 208.541 151.876 210.058 151.535C211.673 151.173 212.765 153.095 214.013 154.127C214.208 154.289 214.518 154.587 214.633 154.532C217.789 153.013 217.104 156.652 218.528 157.465C218.963 157.714 218.719 158.259 218.417 158.792C217.198 160.942 217.733 162.007 219.951 162.553C220.787 162.756 221.532 163.334 222.379 163.773ZM179.533 124.004C179.69 124.762 183.455 131.644 183.999 132.181C184.247 132.427 184.521 132.737 184.859 132.444C185.118 132.229 185.288 131.927 185.338 131.594C185.421 129.503 181.806 124.81 179.533 124.004ZM187.461 150.906C188.142 148.365 186.068 146.869 185.088 144.948C185.04 144.851 184.972 144.766 184.89 144.697C184.807 144.628 184.711 144.576 184.607 144.546C184.504 144.516 184.395 144.508 184.289 144.522C184.182 144.536 184.079 144.573 183.987 144.628C183.644 144.779 183.395 145.2 183.668 145.43C185.44 146.927 184.827 150.05 187.46 150.905L187.461 150.906ZM236.818 201.443C237.738 202.764 238.614 204.12 239.609 205.382C239.879 205.724 239.632 206.837 240.696 206.318C241.481 205.935 241.421 205.364 241.301 204.609C240.921 202.202 238.747 202.06 236.818 201.443ZM186.491 114.794C188.847 117.615 190.775 120.761 192.999 123.684C191.845 119.95 189.146 117.388 186.491 114.794ZM187.972 125.614L188.308 125.375C186.843 123.255 185.384 121.131 183.895 119.028C183.808 118.957 183.703 118.909 183.592 118.89C183.482 118.871 183.368 118.881 183.262 118.919C183.174 118.982 183.1 119.063 183.044 119.157C182.989 119.25 182.954 119.354 182.94 119.462C182.927 119.569 182.936 119.679 182.966 119.783C182.997 119.887 183.049 119.984 183.118 120.067C184.711 121.938 186.35 123.769 187.972 125.614ZM171.962 116.315C173.033 118.324 174.854 119.539 176.473 120.952C174.822 119.555 175.53 116.103 171.962 116.315ZM239.677 220.486C240.651 220.85 241.428 221.274 242.109 220.435C242.8 219.588 242.78 218.605 242.056 216.917C241.978 218.989 240.606 219.379 239.677 220.486ZM246.695 196.501C245.893 198.998 245.893 198.998 248.969 199.872L246.695 196.501Z" fill="black"/>
<path d="M188.851 112.049C190.937 113.315 192.394 115.098 193.651 117.641C191.021 116.258 190.659 113.527 188.851 112.049Z" fill="black"/>
</g>
<defs>
<clipPath id="clip0_57_73">
<rect width="315" height="236" fill="white" transform="translate(145.469 388.385) rotate(-117.504)"/>
</clipPath>
</defs>
</svg>
