<svg width="133" height="22" viewBox="0 0 133 22" fill="none" xmlns="http://www.w3.org/2000/svg">
<g filter="url(#filter0_i_21_20)">
<path d="M24.7558 0.731999H28.6438L23.7838 21H17.8798L14.4958 5.448L11.1478 21H5.20775L0.31175 0.731999H4.23575L8.15975 19.452L12.5518 0.803998L12.5158 0.731999H16.4398L20.8318 19.452L24.7558 0.731999ZM37.1637 21.36C35.4837 21.36 34.0917 21.036 32.9877 20.388C31.8837 19.74 31.0557 18.852 30.5037 17.724C29.9517 16.572 29.6757 15.264 29.6757 13.8C29.6517 11.592 30.2637 9.78 31.5117 8.364C32.7837 6.924 34.6677 6.204 37.1637 6.204C39.5877 6.204 41.4237 6.9 42.6717 8.292C43.9437 9.684 44.5797 11.52 44.5797 13.8C44.5797 15.216 44.3157 16.5 43.7877 17.652C43.2597 18.804 42.4437 19.716 41.3397 20.388C40.2357 21.036 38.8437 21.36 37.1637 21.36ZM37.1637 18.264C38.2197 18.264 39.0237 18.036 39.5757 17.58C40.1517 17.124 40.5357 16.548 40.7277 15.852C40.9197 15.132 41.0157 14.412 41.0157 13.692C41.0157 12.948 40.9197 12.216 40.7277 11.496C40.5357 10.776 40.1517 10.188 39.5757 9.732C39.0237 9.276 38.2197 9.048 37.1637 9.048C36.0837 9.048 35.2557 9.288 34.6797 9.768C34.1277 10.224 33.7437 10.812 33.5277 11.532C33.3357 12.228 33.2397 12.948 33.2397 13.692C33.2397 14.412 33.3357 15.132 33.5277 15.852C33.7437 16.548 34.1277 17.124 34.6797 17.58C35.2557 18.036 36.0837 18.264 37.1637 18.264ZM47.3401 21V6.204H50.7601L51.0121 10.308C51.1561 9.684 51.4321 9.06 51.8401 8.436C52.2721 7.788 52.8601 7.26 53.6041 6.852C54.3721 6.42 55.3561 6.204 56.5561 6.204H57.0961V10.308H56.5561C54.4921 10.308 53.0521 10.644 52.2361 11.316C51.4201 11.964 51.0121 13.068 51.0121 14.628V21H47.3401ZM63.1762 21H59.5042V0.731999H63.1762V13.152L69.4762 6.132H73.9762L67.9282 12.396L74.0842 21H69.6922L65.3362 15.06L63.1762 17.292V21ZM76.7569 21.036V8.796H74.7409V6.204H76.7569V3.792C76.7569 2.496 77.0449 1.56 77.6209 0.983998C78.2209 0.407998 79.1089 0.119998 80.2849 0.119998H84.1729V2.964H80.4289V6.204H84.0649V8.796H80.4289V21.036H76.7569ZM87.9507 21V0.731999H91.5507V21H87.9507ZM101.605 21.36C99.9251 21.36 98.5331 21.036 97.4291 20.388C96.3251 19.74 95.4971 18.852 94.9451 17.724C94.3931 16.572 94.1171 15.264 94.1171 13.8C94.0931 11.592 94.7051 9.78 95.9531 8.364C97.2251 6.924 99.1091 6.204 101.605 6.204C104.029 6.204 105.865 6.9 107.113 8.292C108.385 9.684 109.021 11.52 109.021 13.8C109.021 15.216 108.757 16.5 108.229 17.652C107.701 18.804 106.885 19.716 105.781 20.388C104.677 21.036 103.285 21.36 101.605 21.36ZM101.605 18.264C102.661 18.264 103.465 18.036 104.017 17.58C104.593 17.124 104.977 16.548 105.169 15.852C105.361 15.132 105.457 14.412 105.457 13.692C105.457 12.948 105.361 12.216 105.169 11.496C104.977 10.776 104.593 10.188 104.017 9.732C103.465 9.276 102.661 9.048 101.605 9.048C100.525 9.048 99.6971 9.288 99.1211 9.768C98.5691 10.224 98.1851 10.812 97.9691 11.532C97.7771 12.228 97.6811 12.948 97.6811 13.692C97.6811 14.412 97.7771 15.132 97.9691 15.852C98.1851 16.548 98.5691 17.124 99.1211 17.58C99.6971 18.036 100.525 18.264 101.605 18.264ZM113.942 21L110.486 6.816V6.168H114.086L116.534 17.94H116.606L119.774 6.168H122.942L126.218 17.94H126.29L128.738 6.168H132.302V6.816L128.81 21H123.698L121.394 12.54H121.322L119.126 21H113.942Z" fill="url(#paint0_angular_21_20)"/>
</g>
<defs>
<filter id="filter0_i_21_20" x="0.311768" y="0.119995" width="131.99" height="23.24" filterUnits="userSpaceOnUse" color-interpolation-filters="sRGB">
<feFlood flood-opacity="0" result="BackgroundImageFix"/>
<feBlend mode="normal" in="SourceGraphic" in2="BackgroundImageFix" result="shape"/>
<feColorMatrix in="SourceAlpha" type="matrix" values="0 0 0 0 0 0 0 0 0 0 0 0 0 0 0 0 0 0 127 0" result="hardAlpha"/>
<feOffset dy="2"/>
<feGaussianBlur stdDeviation="3"/>
<feComposite in2="hardAlpha" operator="arithmetic" k2="-1" k3="1"/>
<feColorMatrix type="matrix" values="0 0 0 0 0 0 0 0 0 0 0 0 0 0 0 0 0 0 0.25 0"/>
<feBlend mode="normal" in2="shape" result="effect1_innerShadow_21_20"/>
</filter>
<radialGradient id="paint0_angular_21_20" cx="0" cy="0" r="1" gradientUnits="userSpaceOnUse" gradientTransform="translate(60 21) rotate(-151.504) scale(28.4462 145.683)">
<stop offset="0.643991" stop-color="#82B5A5"/>
<stop offset="0.825221" stop-color="#82B5A5" stop-opacity="0.46"/>
</radialGradient>
</defs>
</svg>
